<?xml version="1.0" encoding="utf-8"?>
<!-- Generator: Adobe Illustrator 17.0.0, SVG Export Plug-In . SVG Version: 6.00 Build 0)  -->
<!DOCTYPE svg PUBLIC "-//W3C//DTD SVG 1.1//EN" "http://www.w3.org/Graphics/SVG/1.1/DTD/svg11.dtd">
<svg version="1.1" xmlns="http://www.w3.org/2000/svg" xmlns:xlink="http://www.w3.org/1999/xlink" x="0px" y="0px"
	 width="160px" height="64px" viewBox="0 0 758.986 300" enable-background="new 0 0 758.986 300" xml:space="preserve">
<g id="main">
	<g id="box">
		<path fill="#1D8FCE" d="M235.798,17.817H72.806c-30.018,0-54.338,24.324-54.338,54.327V223.85c0,30.01,24.32,54.334,54.338,54.334
			h162.992c30.008,0,54.336-24.324,54.336-54.334V72.144C290.134,42.141,265.806,17.817,235.798,17.817z"/>
		<path fill="#FFFFFF" d="M153.74,141.227c0,0-11.059-3.578-11.059-9.963v-17.279c0-37.199-22.875-44.357-38.904-45.289
			c-1.719-0.158-2.967,0.932-3.111,2.645c-0.318,4.668-0.475,8.402-0.787,13.232c0,1.246,1.096,2.643,2.18,2.957
			c10.9,2.803,17.127,11.207,17.127,26.455c0,10.9,0,12.459,0,14.164c0,12.301,13.227,19.924,13.227,19.924v0.625
			c-4.045,1.709-13.227,7.473-13.227,18.68c0,2.176,0,4.514,0,14.631c0,15.258-6.227,23.66-17.127,26.465
			c-1.084,0.303-2.18,1.711-2.18,2.959c0.158,5.443,0.158,8.551,0.787,13.221c0.145,1.561,1.547,2.805,3.111,2.654
			c16.029-0.936,38.904-8.098,38.904-45.299V165.82c0-7.006,7.008-9.186,10.75-9.965c1.24-0.158,2.332-1.559,2.332-2.799v-9.025
			C155.763,142.781,154.671,141.533,153.74,141.227z"/>
		<path fill="#FFFFFF" d="M219.193,208.473c-10.906-2.805-17.133-11.207-17.133-26.465c0-10.117,0-12.455,0-14.631
			c0-11.207-9.186-16.971-13.225-18.68v-0.625c0,0,13.225-7.623,13.225-19.924c0-1.705,0-3.264,0-14.164
			c0-15.248,6.227-23.652,17.133-26.455c1.084-0.314,2.174-1.711,2.174-2.957c-0.316-4.83-0.475-8.564-0.779-13.232
			c-0.158-1.713-1.395-2.803-3.119-2.645c-16.029,0.932-38.904,8.09-38.904,45.289v17.279c0,6.385-11.059,9.963-11.059,9.963
			c-0.932,0.307-2.029,1.555-2.029,2.805v9.025c0,1.24,1.098,2.641,2.34,2.799c3.74,0.779,10.748,2.959,10.748,9.965v16.188
			c0,37.201,22.875,44.363,38.904,45.299c1.566,0.15,2.961-1.094,3.119-2.654c0.623-4.67,0.623-7.777,0.779-13.221
			C221.367,210.184,220.277,208.775,219.193,208.473z"/>
		<path fill="#FFFFFF" d="M103.31,111.689c0-1.076-0.973-2.051-2.049-2.051H87.972c-1.199,0-2.062,0.975-2.062,2.051v43.77
			c0,7.564-5.725,13.611-13.51,13.611c-7.666,0-13.295-6.047-13.295-13.611v-43.77c0-1.076-0.859-2.051-2.043-2.051H43.765
			c-1.078,0-2.053,0.975-2.053,2.051v44.631c0,16.428,13.719,30.039,30.687,30.039c17.08,0,30.91-13.611,30.91-30.039V111.689z"/>
		<path fill="#FFFFFF" d="M246.798,139.779c-8.648-3.502-11.938-6.57-11.938-10.627c0-2.957,2.947-5.588,6.898-5.588
			c6.682,0,14.69,6.029,15.674,6.578c0.98,0.764,2.955-0.223,3.728-1.426l5.59-8.443c0.432-0.762,0.654-2.736-0.666-3.504
			c-3.285-2.408-12.051-8.221-23.451-8.221c-16.873,0-25.312,10.963-25.312,21.809c0,13.146,11.838,20.492,21.26,24.221
			c7.451,2.955,11.285,6.461,11.285,11.066c0,3.834-3.176,6.576-7.557,6.576c-7.229,0-15.121-5.811-15.559-6.029
			c-0.773-0.547-2.855-0.77-3.734,0.656l-5.15,9.094c-0.873,1.541-0.545,1.979,0.553,3.072c2.521,2.527,10.412,8.438,24.658,8.438
			c16.104,0,25.856-11.395,25.856-22.682C268.933,149.867,255.351,143.178,246.798,139.779z"/>
	</g>
	<g id="text">
		<path fill="none" d="M463.321,57.427H453v12.602h10.32c3.355,0,6.271-2.914,6.271-6.457
			C469.592,60.216,466.676,57.427,463.321,57.427z"/>
		<path fill="none" d="M426.274,139.768c0-3.484-2.979-6.148-6.523-6.148h-7.348v12.732h7.348
			C423.295,146.352,426.274,143.502,426.274,139.768z"/>
		<path fill="none" d="M380.102,209.439c-7.983,0-14.507,6.646-14.507,14.629c0,7.977,6.523,14.502,14.507,14.502
			c7.978,0,14.566-6.525,14.566-14.502C394.668,216.086,388.08,209.439,380.102,209.439z"/>
		<path fill="none" d="M498.924,133.438H488.6v12.594h10.324c3.354,0,6.27-2.902,6.27-6.453
			C505.194,136.223,502.278,133.438,498.924,133.438z"/>
		<path fill="#80848A" d="M360.15,51.033c0-0.634-0.572-1.204-1.207-1.204h-6.016c-0.691,0-1.197,0.57-1.197,1.204v25.964
			c0,5.32-3.742,9.565-9.252,9.565c-5.502,0-9.18-4.245-9.18-9.628V51.033c0-0.634-0.508-1.204-1.205-1.204h-6.016
			c-0.635,0-1.207,0.57-1.207,1.204v26.345c0,9.625,7.672,17.414,17.607,17.414c10.006,0,17.672-7.789,17.672-17.414V51.033z"/>
		<path fill="#80848A" d="M383.141,87.513c-4.116,0-9.247-3.737-9.564-3.928c-0.568-0.447-1.643-0.447-2.15,0.438l-2.281,3.93
			c-0.57,1.013-0.254,1.333,0.318,1.9c1.262,1.204,5.953,4.938,13.931,4.938c8.934,0,14.557-6.018,14.557-12.541
			c0-8.167-7.09-11.842-13.232-14.311c-5.125-2.086-7.47-4.115-7.47-7.092c0-2.029,1.96-4.432,5.579-4.432
			c3.477,0,8.295,3.166,8.797,3.483c0.76,0.504,1.711,0,2.219-0.761l2.408-3.607c0.438-0.637,0.254-1.716-0.381-2.093
			c-1.267-0.95-6.207-4.241-12.668-4.241c-10.069,0-14.247,6.521-14.247,12.157c0,7.473,5.953,11.274,11.909,13.677
			c5.316,2.156,8.039,4.371,8.039,7.603C388.905,85.357,386.438,87.513,383.141,87.513z"/>
		<path fill="#80848A" d="M407.969,94.161h25.781c0.689,0,1.197-0.57,1.197-1.205V87.76c0-0.631-0.508-1.198-1.197-1.198h-18.748
			V75.475h15.635c0.641,0,1.209-0.506,1.209-1.201v-5.256c0-0.638-0.568-1.205-1.209-1.205h-15.635V57.427h18.748
			c0.689,0,1.197-0.567,1.197-1.201v-5.193c0-0.634-0.508-1.204-1.197-1.204h-25.781c-0.689,0-1.205,0.57-1.205,1.204v41.923
			C406.764,93.59,407.28,94.161,407.969,94.161z"/>
		<path fill="#80848A" d="M477.131,92.322l-8.674-16.089c5.504-2.213,9.373-6.959,9.373-12.789c0-7.535-6.217-13.615-13.81-13.615
			h-18.109c-0.697,0-1.205,0.57-1.205,1.204v41.923c0,0.635,0.508,1.205,1.205,1.205h5.826c0.635,0,1.199-0.57,1.199-1.205V76.806
			h7.031l8.428,16.784c0.121,0.25,0.443,0.57,1.008,0.57h6.658C477.131,94.161,477.569,93.147,477.131,92.322z M463.321,70.029H453
			V57.427h10.32c3.355,0,6.271,2.789,6.271,6.145C469.592,67.115,466.676,70.029,463.321,70.029z"/>
		<path fill="#80848A" d="M352.484,125.834h-25.766c-0.705,0-1.207,0.57-1.207,1.203v41.922c0,0.637,0.502,1.205,1.207,1.205h25.766
			c0.699,0,1.203-0.568,1.203-1.205v-5.191c0-0.635-0.504-1.203-1.203-1.203h-18.742v-11.082h15.635
			c0.641,0,1.205-0.508,1.205-1.205v-5.258c0-0.633-0.564-1.201-1.205-1.201h-15.635v-10.381h18.742
			c0.699,0,1.203-0.574,1.203-1.205v-5.195C353.687,126.404,353.183,125.834,352.484,125.834z"/>
		<path fill="#80848A" d="M360.085,127.605l12.674,19.824l-13.176,20.961c-0.508,0.82,0,1.773,1.135,1.773h6.844
			c0.506,0,0.887-0.318,1.078-0.568l8.926-14.506h0.191l9.056,14.506c0.133,0.25,0.576,0.568,1.076,0.568h6.842
			c1.076,0,1.578-0.887,1.076-1.773l-13.166-20.961l12.723-19.824c0.508-0.82,0-1.771-1.07-1.771h-7.348
			c-0.508,0-0.889,0.314-1.016,0.57l-8.231,13.426h-0.068l-8.103-13.426c-0.191-0.256-0.506-0.57-1.014-0.57h-7.348
			C360.085,125.834,359.583,126.785,360.085,127.605z"/>
		<path fill="#80848A" d="M412.403,168.959v-14.881h7.918c7.723,0,14.119-6.395,14.119-14.248c0-7.662-6.396-13.996-14.182-13.996
			h-14.881c-0.699,0-1.207,0.57-1.207,1.203v41.922c0,0.637,0.508,1.205,1.207,1.205h5.826
			C411.836,170.164,412.403,169.596,412.403,168.959z M412.403,133.619h7.348c3.545,0,6.523,2.664,6.523,6.148
			c0,3.734-2.979,6.584-6.523,6.584h-7.348V133.619z"/>
		<path fill="#80848A" d="M469.344,125.834h-25.773c-0.695,0-1.203,0.57-1.203,1.203v41.922c0,0.637,0.508,1.205,1.203,1.205h25.773
			c0.699,0,1.199-0.568,1.199-1.205v-5.191c0-0.635-0.5-1.203-1.199-1.203H450.59v-11.082h15.648c0.635,0,1.203-0.508,1.203-1.205
			v-5.258c0-0.633-0.568-1.201-1.203-1.201H450.59v-10.381h18.754c0.699,0,1.199-0.574,1.199-1.205v-5.195
			C470.543,126.404,470.043,125.834,469.344,125.834z"/>
		<path fill="#80848A" d="M512.727,168.328l-8.68-16.086c5.516-2.219,9.383-6.965,9.383-12.791c0-7.535-6.215-13.617-13.809-13.617
			h-18.115c-0.697,0-1.205,0.57-1.205,1.203v41.922c0,0.637,0.508,1.205,1.205,1.205h5.826c0.635,0,1.205-0.568,1.205-1.205v-16.148
			h7.025l8.426,16.785c0.129,0.25,0.445,0.568,1.008,0.568h6.66C512.727,170.164,513.164,169.152,512.727,168.328z M498.924,146.031
			H488.6v-12.594h10.324c3.354,0,6.27,2.785,6.27,6.141C505.194,143.129,502.278,146.031,498.924,146.031z"/>
		<path fill="#80848A" d="M524.387,170.164h5.889c0.627,0,1.207-0.568,1.207-1.205v-41.922c0-0.633-0.58-1.203-1.207-1.203h-5.889
			c-0.635,0-1.205,0.57-1.205,1.203v41.922C523.182,169.596,523.752,170.164,524.387,170.164z"/>
		<path fill="#80848A" d="M544.911,170.164h25.768c0.705,0,1.205-0.568,1.205-1.205v-5.191c0-0.635-0.5-1.203-1.205-1.203h-18.75
			v-11.082h15.65c0.627,0,1.197-0.508,1.197-1.205v-5.258c0-0.633-0.57-1.201-1.197-1.201h-15.65v-10.381h18.75
			c0.705,0,1.205-0.574,1.205-1.205v-5.195c0-0.633-0.5-1.203-1.205-1.203h-25.768c-0.705,0-1.205,0.57-1.205,1.203v41.922
			C543.706,169.596,544.206,170.164,544.911,170.164z"/>
		<path fill="#80848A" d="M617.864,125.834h-5.828c-0.691,0-1.203,0.57-1.203,1.203v26.156h-0.059l-26.344-27.994h-1.586
			c-0.627,0-1.203,0.508-1.203,1.143v42.617c0,0.637,0.576,1.205,1.203,1.205h5.764c0.699,0,1.199-0.568,1.199-1.205V141.73h0.068
			l26.473,29.062h1.516c0.635,0,1.203-0.502,1.203-1.135v-42.621C619.067,126.404,618.498,125.834,617.864,125.834z"/>
		<path fill="#80848A" d="M662.456,158.891c-0.381-0.383-1.078-0.443-1.586,0c-2.662,2.154-5.891,3.609-9.68,3.609
			c-8.111,0-14.191-6.709-14.191-14.623c0-7.982,6.012-14.76,14.119-14.76c3.545,0,7.09,1.396,9.752,3.736
			c0.508,0.512,1.141,0.512,1.586,0l3.863-3.99c0.504-0.504,0.504-1.266-0.059-1.77c-4.31-3.865-8.939-5.895-15.33-5.895
			c-12.664,0-22.865,10.199-22.865,22.861c0,12.664,10.201,22.732,22.865,22.732c5.635,0,11.08-1.961,15.389-6.139
			c0.449-0.443,0.568-1.27,0.061-1.707L662.456,158.891z"/>
		<path fill="#80848A" d="M702.299,133.438c0.695,0,1.197-0.574,1.197-1.205v-5.195c0-0.633-0.502-1.203-1.197-1.203h-25.773
			c-0.691,0-1.205,0.57-1.205,1.203v41.922c0,0.637,0.514,1.205,1.205,1.205h25.773c0.695,0,1.197-0.568,1.197-1.205v-5.191
			c0-0.635-0.502-1.203-1.197-1.203h-18.748v-11.082h15.635c0.639,0,1.211-0.508,1.211-1.205v-5.258
			c0-0.633-0.572-1.201-1.211-1.201h-15.635v-10.381H702.299z"/>
		<path fill="#80848A" d="M338.484,219.951c-5.129-2.094-7.469-4.119-7.469-7.094c0-2.021,1.967-4.434,5.572-4.434
			c3.48,0,8.293,3.168,8.809,3.48c0.76,0.51,1.705,0,2.219-0.756l2.402-3.607c0.439-0.633,0.254-1.713-0.379-2.092
			c-1.275-0.953-6.209-4.242-12.662-4.242c-10.074,0-14.254,6.521-14.254,12.156c0,7.475,5.953,11.273,11.9,13.68
			c5.326,2.154,8.047,4.373,8.047,7.596c0,2.73-2.473,4.881-5.764,4.881c-4.115,0-9.244-3.738-9.561-3.928
			c-0.572-0.443-1.65-0.443-2.158,0.445l-2.279,3.926c-0.566,1.01-0.248,1.328,0.32,1.896c1.264,1.203,5.955,4.943,13.938,4.943
			c8.922,0,14.564-6.016,14.564-12.541C351.73,226.09,344.634,222.418,338.484,219.951z"/>
		<path fill="#80848A" d="M380.102,201.207c-12.669,0-22.743,10.195-22.743,22.861c0,12.662,10.074,22.734,22.743,22.734
			c12.662,0,22.795-10.072,22.795-22.734C402.897,211.402,392.764,201.207,380.102,201.207z M380.102,238.57
			c-7.983,0-14.507-6.525-14.507-14.502c0-7.982,6.523-14.629,14.507-14.629c7.978,0,14.566,6.646,14.566,14.629
			C394.668,232.045,388.08,238.57,380.102,238.57z"/>
		<path fill="#80848A" d="M443.059,234.895c-0.383-0.383-1.086-0.447-1.588,0c-2.656,2.156-5.883,3.609-9.688,3.609
			c-8.104,0-14.184-6.711-14.184-14.627c0-7.979,6.017-14.758,14.119-14.758c3.545,0,7.096,1.395,9.752,3.738
			c0.502,0.506,1.142,0.506,1.588,0l3.861-3.99c0.5-0.506,0.5-1.268-0.064-1.773c-4.305-3.865-8.928-5.887-15.324-5.887
			c-12.664,0-22.857,10.195-22.857,22.861c0,12.662,10.193,22.734,22.857,22.734c5.635,0,11.082-1.963,15.389-6.145
			c0.443-0.447,0.576-1.27,0.068-1.711L443.059,234.895z"/>
		<path fill="#80848A" d="M463.01,201.836h-5.883c-0.641,0-1.205,0.572-1.205,1.205v41.92c0,0.637,0.564,1.203,1.205,1.203h5.883
			c0.641,0,1.205-0.566,1.205-1.203v-41.92C464.215,202.408,463.651,201.836,463.01,201.836z"/>
		<path fill="#80848A" d="M503.418,201.836h-25.773c-0.697,0-1.205,0.572-1.205,1.205v41.92c0,0.637,0.508,1.203,1.205,1.203h25.773
			c0.699,0,1.205-0.566,1.205-1.203v-5.193c0-0.625-0.506-1.197-1.205-1.197h-18.742v-11.088h15.635
			c0.641,0,1.207-0.506,1.207-1.203v-5.252c0-0.633-0.566-1.201-1.207-1.201h-15.635v-10.387h18.742
			c0.699,0,1.205-0.572,1.205-1.207v-5.191C504.623,202.408,504.118,201.836,503.418,201.836z"/>
		<path fill="#80848A" d="M538.317,201.836h-27.67c-0.697,0-1.205,0.572-1.205,1.205v5.191c0,0.635,0.508,1.207,1.205,1.207h9.682
			v35.521c0,0.637,0.578,1.203,1.205,1.203h5.891c0.633,0,1.209-0.566,1.209-1.203v-35.521h9.684c0.697,0,1.205-0.572,1.205-1.207
			v-5.191C539.522,202.408,539.014,201.836,538.317,201.836z"/>
		<path fill="#80848A" d="M579.231,201.836h-6.523c-0.5,0-0.824,0.322-1.008,0.572l-10.133,14.568l-10.133-14.568
			c-0.197-0.25-0.512-0.572-1.019-0.572h-6.455c-1.016,0-1.522,1.014-1.016,1.836l14.438,21.156v20.133
			c0,0.637,0.508,1.203,1.207,1.203h5.824c0.631,0,1.207-0.566,1.207-1.203v-20.195l14.625-21.094
			C580.752,202.85,580.245,201.836,579.231,201.836z"/>
	</g>
</g>
<g id="alternate">
</g>
</svg>
