<svg width="41" height="41" viewBox="0 0 41 41" fill="none" xmlns="http://www.w3.org/2000/svg">
<path d="M20.5 0C9.1959 0 0 9.1959 0 20.5C0 31.8041 9.1959 41 20.5 41C31.8041 41 41 31.8041 41 20.5C41 9.1959 31.8041 0 20.5 0ZM29.4519 21.0581L14.9035 30.3162C14.795 30.3843 14.672 30.4194 14.5484 30.4194C14.4393 30.4194 14.3295 30.3922 14.2303 30.338C14.0187 30.2216 13.8871 29.9994 13.8871 29.7581V11.2419C13.8871 11.0006 14.0187 10.7784 14.2303 10.662C14.4419 10.5463 14.6992 10.5549 14.9042 10.6838L29.4525 19.9419C29.6423 20.0635 29.7581 20.2738 29.7581 20.5C29.7581 20.7262 29.6423 20.9365 29.4519 21.0581Z" fill="#111111"/>
</svg>
