<svg width="11" height="11" viewBox="0 0 11 11" fill="none" xmlns="http://www.w3.org/2000/svg">
<path d="M10.6562 1.375H8.59375V0.34375C8.59375 0.252582 8.55753 0.165148 8.49307 0.100682C8.4286 0.0362164 8.34117 0 8.25 0C8.15883 0 8.0714 0.0362164 8.00693 0.100682C7.94247 0.165148 7.90625 0.252582 7.90625 0.34375V1.375H3.09375V0.34375C3.09375 0.252582 3.05753 0.165148 2.99307 0.100682C2.9286 0.0362164 2.84117 0 2.75 0C2.65883 0 2.5714 0.0362164 2.50693 0.100682C2.44247 0.165148 2.40625 0.252582 2.40625 0.34375V1.375H0.34375C0.252582 1.375 0.165148 1.41122 0.100682 1.47568C0.0362164 1.54015 0 1.62758 0 1.71875L0 10.6562C0 10.7474 0.0362164 10.8349 0.100682 10.8993C0.165148 10.9638 0.252582 11 0.34375 11H10.6562C10.7474 11 10.8349 10.9638 10.8993 10.8993C10.9638 10.8349 11 10.7474 11 10.6562V1.71875C11 1.62758 10.9638 1.54015 10.8993 1.47568C10.8349 1.41122 10.7474 1.375 10.6562 1.375ZM10.3125 10.3125H0.6875V3.4375H10.3125V10.3125Z" fill="#B3BCC4"/>
</svg>
