<svg width="27" height="27" viewBox="0 0 27 27" fill="none" xmlns="http://www.w3.org/2000/svg">
<path d="M20.2489 0.00577033L16.7476 0.000152588C12.8141 0.000152588 10.2721 2.60819 10.2721 6.64482V9.70846H6.7517C6.44749 9.70846 6.20116 9.95507 6.20116 10.2593V14.6981C6.20116 15.0023 6.44778 15.2487 6.7517 15.2487H10.2721V26.4493C10.2721 26.7535 10.5184 26.9999 10.8226 26.9999H15.4157C15.7199 26.9999 15.9662 26.7533 15.9662 26.4493V15.2487H20.0823C20.3865 15.2487 20.6329 15.0023 20.6329 14.6981L20.6345 10.2593C20.6345 10.1132 20.5764 9.97333 20.4733 9.86997C20.3702 9.7666 20.2298 9.70846 20.0837 9.70846H15.9662V7.11137C15.9662 5.86311 16.2637 5.22943 17.8897 5.22943L20.2483 5.22859C20.5522 5.22859 20.7986 4.98197 20.7986 4.67805V0.556309C20.7986 0.25267 20.5525 0.00633211 20.2489 0.00577033Z" fill="#008ED4"/>
</svg>
