<svg width="8" height="11" viewBox="0 0 8 11" fill="none" xmlns="http://www.w3.org/2000/svg">
<path d="M4 0C2.03374 0 0 1.55785 0 4.16467C0 6.89574 3.71878 10.7831 3.87704 10.9472C3.90957 10.9811 3.95391 11 4 11C4.04609 11 4.09044 10.9811 4.12296 10.9472C4.28122 10.7831 8 6.89574 8 4.16467C8 1.55785 5.96626 0 4 0ZM4 5.59016C3.23165 5.59016 2.6087 4.94423 2.6087 4.14754C2.6087 3.35085 3.23165 2.70492 4 2.70492C4.76835 2.70492 5.3913 3.35085 5.3913 4.14754C5.3913 4.94423 4.76835 5.59016 4 5.59016Z" fill="#B3BCC4"/>
</svg>
