<svg width="27" height="27" viewBox="0 0 27 27" fill="none" xmlns="http://www.w3.org/2000/svg">
<path d="M26.1562 0H0.84375C0.619974 0 0.405362 0.0888949 0.247129 0.247129C0.0888949 0.405362 0 0.619974 0 0.84375L0 26.1562C0 26.38 0.0888949 26.5946 0.247129 26.7529C0.405362 26.9111 0.619974 27 0.84375 27H26.1562C26.38 27 26.5946 26.9111 26.7529 26.7529C26.9111 26.5946 27 26.38 27 26.1562V0.84375C27 0.619974 26.9111 0.405362 26.7529 0.247129C26.5946 0.0888949 26.38 0 26.1562 0V0ZM22.4307 6.39689L20.9828 7.78528C20.9215 7.83188 20.8741 7.89437 20.8457 7.96599C20.8174 8.0376 20.8092 8.11561 20.8221 8.19155V18.3937C20.8092 18.4697 20.8174 18.5477 20.8457 18.6193C20.8741 18.6909 20.9215 18.7534 20.9828 18.8L22.3969 20.1884V20.493H15.2837V20.1884L16.7484 18.7654C16.8923 18.6216 16.8923 18.5794 16.8923 18.3592V10.1136L12.8195 20.4584H12.2711L7.52709 10.1136V17.0467C7.50758 17.1905 7.52107 17.3369 7.56654 17.4748C7.612 17.6126 7.68825 17.7383 7.7895 17.8424L9.69469 20.1534V20.458H4.29216V20.1534L6.19734 17.8424C6.29777 17.7383 6.37232 17.612 6.41497 17.4738C6.45762 17.3356 6.46718 17.1893 6.44287 17.0467V9.03108C6.45367 8.9216 6.43861 8.81112 6.39889 8.70853C6.35918 8.60594 6.29592 8.51412 6.21422 8.44045L4.52081 6.40027V6.09567H9.77948L13.8443 15.0099L17.418 6.09567H22.4307V6.39689Z" fill="#008ED4"/>
</svg>
