<svg width="11" height="11" viewBox="0 0 11 11" fill="none" xmlns="http://www.w3.org/2000/svg">
<path d="M3.3052 6.72932L4.08904 7.04282L4.25865 9.41581C4.26522 9.50877 4.34257 9.58063 4.43554 9.58063H6.56457C6.65754 9.58063 6.73489 9.50877 6.74146 9.41581L6.91107 7.04282L7.69491 6.72932C7.76233 6.70218 7.80651 6.63707 7.80651 6.5645V4.25805C7.80651 3.57321 7.24923 3.01611 6.56457 3.01611H4.43554C3.75088 3.01611 3.1936 3.57321 3.1936 4.25805V6.5645C3.1936 6.63707 3.23778 6.70218 3.3052 6.72932Z" fill="#B3BCC4"/>
<path d="M5.49999 2.48387C6.18589 2.48387 6.74193 1.92784 6.74193 1.24194C6.74193 0.556033 6.18589 0 5.49999 0C4.81409 0 4.25806 0.556033 4.25806 1.24194C4.25806 1.92784 4.81409 2.48387 5.49999 2.48387Z" fill="#B3BCC4"/>
<path d="M8.00552 8.30576C7.91095 8.29529 7.81976 8.36288 7.80787 8.46011C7.79581 8.55734 7.86482 8.64587 7.96223 8.65793C9.93069 8.90082 10.6452 9.34295 10.6452 9.58069C10.6452 10.0251 8.68787 10.6452 5.5 10.6452C2.31213 10.6452 0.354839 10.0251 0.354839 9.58069C0.354839 9.34295 1.06931 8.90082 3.03777 8.65811C3.13518 8.64605 3.20419 8.55751 3.19213 8.46029C3.18024 8.36306 3.08923 8.29458 2.99448 8.30593C1.87603 8.44379 0 8.79295 0 9.58069C0 10.5125 2.76685 11 5.5 11C8.23314 11 11 10.5125 11 9.58069C11 8.79295 9.12397 8.44379 8.00552 8.30576Z" fill="#B3BCC4"/>
</svg>
