<svg width="27" height="27" viewBox="0 0 27 27" fill="none" xmlns="http://www.w3.org/2000/svg">
<g clip-path="url(#clip0)">
<path d="M27.0008 5.12904C26.007 5.56937 24.9408 5.86801 23.8204 6.00133C24.9644 5.31632 25.84 4.22979 26.255 2.93908C25.182 3.57345 23.9976 4.03408 22.7355 4.28379C21.7249 3.20568 20.2875 2.53417 18.693 2.53417C15.6342 2.53417 13.154 5.01433 13.154 8.07151C13.154 8.50509 13.2029 8.92858 13.2974 9.33354C8.69483 9.10236 4.61355 6.89723 1.88201 3.54645C1.40452 4.36307 1.13289 5.31459 1.13289 6.33032C1.13289 8.25204 2.11147 9.94765 3.5962 10.9397C2.68848 10.9093 1.83476 10.6596 1.08736 10.2446V10.3137C1.08736 12.9964 2.99726 15.2352 5.5297 15.7448C5.06572 15.8697 4.57645 15.9388 4.07029 15.9388C3.71263 15.9388 3.36675 15.9034 3.02761 15.8359C3.73283 18.0377 5.77773 19.6388 8.20054 19.6827C6.30582 21.1674 3.91676 22.0498 1.32189 22.0498C0.874804 22.0498 0.434422 22.0228 0.000833511 21.9739C2.45232 23.5481 5.36272 24.4659 8.49074 24.4659C18.6796 24.4659 24.249 16.0266 24.249 8.70759L24.2305 7.99055C25.3187 7.21439 26.2601 6.23921 27.0008 5.12904Z" fill="#008ED4"/>
</g>
<defs>
<clipPath id="clip0">
<rect width="27" height="27" fill="white"/>
</clipPath>
</defs>
</svg>
